<svg width="353.60198974609375" height="165.99399185180664"><defs id="SvgjsDefs1011"></defs><g id="main_text" rel="mainfill" name="main_text" xmlns:name="mainText_mainfill" fill="#ffffff" transform="translate(0.0000019073486328125, 119.99398899078369)"><path d="M20.102 42.044 l-2.162 3.956 l-17.94 0 l0 -2.024 l2.024 -3.726 l0 -20.47 l-2.024 -3.818 l0 -1.932 l14.168 0 l5.934 2.024 l0 25.99 z M13.892 20.24 l-5.658 0 l0 19.734 l5.658 0 l0 -19.734 z M44.114000000000004 12.052 l0 2.208 l0 5.796 l0 0.23 l-6.21 1.978 l0 -1.978 l-5.658 0 l0 9.108 l5.842 -2.024 l0 6.578 l-5.842 2.07 l0 4.002 l5.658 0 l0 -1.932 l6.21 -2.07 l0 6.072 l-2.162 3.91 l-17.94 0 l0 -1.978 l2.024 -3.726 l0 -20.516 l-2.024 -3.772 l0 -1.932 l13.892 0 z M62.1 16.1 l6.21 -2.07 l0 29.624 l-6.21 2.346 l0 -8.97 l-5.842 -7.82 l0 12.834 l-2.162 3.956 l-6.072 0 l0 -2.024 l2.024 -3.726 l0 -20.47 l-2.024 -3.818 l0 -1.932 l6.072 0 l2.024 4.094 l5.98 8.556 l0 -10.58 l0 0 z M85.606 20.24 l0 21.804 l-2.116 3.956 l-6.21 0 l0 -2.024 l2.116 -4.002 l0 -19.734 l-5.428 0 l-2.162 -4.278 l0 -1.932 l18.078 0 l2.024 3.956 l0 2.254 l-6.302 0 z M103.086 19.78 l0 20.47 l2.024 3.726 l0 2.024 l-10.212 0 l0 -2.024 l1.978 -3.726 l0 -20.47 l-1.978 -3.818 l0 -1.932 l10.212 0 l0 1.932 z M122.866 22.218 l0 -1.932 l-5.658 0 l0 5.704 l5.658 -1.932 l6.21 2.07 l0 15.962 l-2.116 3.91 l-17.94 0 l0 -1.978 l1.978 -3.726 l0 -4.232 l6.21 -2.07 l0 6.026 l5.658 0 l0 -9.384 l-5.658 1.978 l-6.21 -1.932 l0 -10.902 l-1.978 -3.772 l0 -1.932 l13.938 0 l6.118 -2.07 l0 8.188 z M146.37199999999999 20.24 l0 21.804 l-2.116 3.956 l-6.21 0 l0 -2.024 l2.116 -4.002 l0 -19.734 l-5.428 0 l-2.162 -4.278 l0 -1.932 l18.078 0 l2.024 3.956 l0 2.254 l-6.302 0 z M175.766 43.976 l-6.21 2.024 l0 -13.248 l-5.658 1.978 l0 7.314 l-2.162 3.956 l-6.072 0 l0 -2.024 l2.024 -3.726 l0 -20.47 l-2.024 -3.818 l0 -1.932 l13.524 0 l6.026 2.3 l-1.334 9.66 l-2.392 0.828 l4.278 1.426 l0 15.732 z M167.53199999999998 26.864 l0.828 -6.624 l-4.462 0 l0 7.958 z M199.548 31.924 l-5.888 1.978 l0 6.348 l2.024 3.726 l0 2.024 l-10.212 0 l0 -2.024 l1.978 -3.726 l0 -4.416 l-5.98 -1.702 l0 -14.352 l-2.024 -3.818 l0 -1.932 l6.072 0 l2.162 4.094 l0 11.224 l5.658 -1.978 l0 -11.132 l6.21 -2.07 l0 17.756 z  M228.344 20.24 l0 21.804 l-2.116 3.956 l-6.21 0 l0 -2.024 l2.116 -4.002 l0 -19.734 l-5.428 0 l-2.162 -4.278 l0 -1.932 l18.078 0 l2.024 3.956 l0 2.254 l-6.302 0 z M257.738 43.976 l-6.21 2.024 l0 -13.248 l-5.658 1.978 l0 7.314 l-2.162 3.956 l-6.072 0 l0 -2.024 l2.024 -3.726 l0 -20.47 l-2.024 -3.818 l0 -1.932 l13.524 0 l6.026 2.3 l-1.334 9.66 l-2.392 0.828 l4.278 1.426 l0 15.732 z M249.504 26.864 l0.828 -6.624 l-4.462 0 l0 7.958 z M281.52 43.976 l-6.21 2.024 l0 -12.098 l-5.658 2.024 l0 6.118 l-2.162 3.956 l-6.072 0 l0 -2.024 l2.024 -3.726 l0 -20.47 l-2.024 -3.818 l0 -1.932 l14.168 0 l5.934 2.024 l0 27.922 z M269.652 29.348 l5.658 -1.978 l0 -7.13 l-5.658 0 l0 9.108 z M305.57800000000003 14.030000000000001 l0 13.754 l-5.336 16.192 l-4.738 2.024 l-10.074 0 l0 -2.024 l1.84 -3.496 l0 -20.976 l-1.84 -3.542 l0 -1.932 l5.934 0 l2.116 4.002 l0 22.494 l1.794 0 l4.232 -14.398 l0 -9.936 l6.072 -2.162 l0 0 z M329.59 12.052 l0 2.208 l0 5.796 l0 0.23 l-6.21 1.978 l0 -1.978 l-5.658 0 l0 9.108 l5.842 -2.024 l0 6.578 l-5.842 2.07 l0 4.002 l5.658 0 l0 -1.932 l6.21 -2.07 l0 6.072 l-2.162 3.91 l-17.94 0 l0 -1.978 l2.024 -3.726 l0 -20.516 l-2.024 -3.772 l0 -1.932 l13.892 0 z M347.392 31.924 l6.21 -2.07 l0 12.144 l-2.162 3.956 l-17.94 0 l0 -2.024 l2.024 -3.726 l0 -20.47 l-2.024 -3.818 l0 -1.932 l10.074 0 l0 1.978 l-1.84 3.772 l0 20.194 l5.658 0 l0 -8.004 l0 0 z"></path></g><g id="SvgjsG1013" rel="mainfill" name="symbol" xmlns:name="symbol_mainfill" fill="#ffffff" transform="translate(111.97818993430508, -5.672639976360809) scale(1.2912909276753086)"><g xmlns="http://www.w3.org/2000/svg"><path d="M70.263,10.401c-1.201-0.196-2.342-0.291-3.489-0.291c-3.061,0-5.482,0.689-7.824,1.355   c-2.194,0.625-4.267,1.214-6.793,1.214c0,0-0.001,0-0.001,0c-0.629,0-1.275-0.038-1.928-0.112c-3.551-0.39-6.197-1.851-8.999-3.397   c-3.141-1.734-6.389-3.527-11.11-4.034c-6.976-0.743-13.486,1.597-17.888,6.401c-3.958,4.318-5.834,10.158-5.284,16.445   c0.526,5.954,2.849,10.689,5.095,15.268c2.183,4.448,4.244,8.65,4.733,13.896c0.213,1.94,0.398,4.039,0.594,6.262   C18.608,77.483,20.15,95,31.267,94.999c0.154,0,0.311-0.003,0.47-0.011c4.45-0.208,6.17-6.923,8.162-14.698   c2.168-8.461,4.625-18.052,10.305-18.369c0.011,0,0.113-0.005,0.124-0.006c5.577,0.075,8.056,8.298,10.244,15.554   c1.952,6.476,3.638,12.069,7.714,12.069c0,0,0.001,0,0.001,0c0.358,0,0.726-0.048,1.09-0.143   c11.47-2.961,12.908-18.1,13.958-29.153c0.147-1.551,0.289-3.041,0.452-4.453c0.418-4.197,2.433-7.418,4.567-10.828   c2.13-3.405,4.333-6.927,4.735-11.411C94.003,23.206,83.773,12.823,70.263,10.401z M90.102,33.286   c-0.337,3.767-2.257,6.836-4.291,10.085c-2.223,3.553-4.521,7.227-5.006,12.099c-0.163,1.408-0.306,2.918-0.456,4.49   c-1.02,10.736-2.289,24.097-11.722,26.532c-0.122,0.031-0.254,0.031-0.341,0.047c-1.847,0-3.508-5.509-4.842-9.935   c-2.362-7.834-5.301-17.583-13.096-17.688l-0.311,0.011c-7.874,0.439-10.621,11.16-13.044,20.619   c-1.408,5.499-3.162,12.341-5.394,12.446c-8.688,0.448-10.095-15.824-11.242-28.846c-0.197-2.239-0.383-4.354-0.597-6.301   c-0.538-5.771-2.819-10.419-5.024-14.915c-2.224-4.532-4.324-8.813-4.8-14.209c-0.476-5.438,1.125-10.464,4.507-14.155   c3.289-3.589,7.949-5.565,13.124-5.565c0.735,0,1.487,0.041,2.234,0.12c4.119,0.442,6.965,2.014,9.979,3.678   c2.937,1.621,5.973,3.297,10.114,3.752c0.759,0.087,1.52,0.131,2.262,0.131c0,0,0,0,0,0c2.945,0,5.32-0.676,7.615-1.329   c2.243-0.638,4.361-1.241,7.003-1.241c0.984,0,1.967,0.082,2.983,0.248C81.552,15.472,90.869,24.599,90.102,33.286z"></path><path d="M27.565,15.862c-2.985,0-5.519,1.042-7.326,3.014c-1.875,2.046-2.753,4.94-2.472,8.151   c0.347,3.94,1.971,7.249,4.026,11.438c0.261,0.531,0.793,0.84,1.348,0.84c0.222,0,0.447-0.05,0.66-0.154   c0.744-0.365,1.051-1.264,0.686-2.007c-1.918-3.909-3.433-6.997-3.731-10.38c-0.207-2.362,0.396-4.443,1.695-5.861   c1.224-1.335,2.992-2.042,5.114-2.042c0.829,0,1.5-0.671,1.5-1.5S28.394,15.862,27.565,15.862z"></path></g></g></svg>